<?xml version="1.0" encoding="UTF-8"?>

<svg version="1.2" baseProfile="tiny" width="210mm" height="297mm" viewBox="0 0 21000 29700" preserveAspectRatio="xMidYMid" fill-rule="evenodd" clip-path="url(#presentation_clip_path)" stroke-width="28.222" stroke-linejoin="round" xmlns="http://www.w3.org/2000/svg" xmlns:ooo="http://xml.openoffice.org/svg/export" xmlns:xlink="http://www.w3.org/1999/xlink" xml:space="preserve">
 <defs class="ClipPathGroup">
  <clipPath id="presentation_clip_path" clipPathUnits="userSpaceOnUse">
   <rect x="0" y="0" width="21000" height="29700"/>
  </clipPath>
 </defs>
 <defs class="TextShapeIndex">
  <g ooo:slide="id1" ooo:id-list="id3 id4 id5 id6 id7 id8 id9 id10 id11 id12 id13 id14 id15 id16 id17 id18 id19 id20 id21 id22 id23 id24 id25 id26"/>
 </defs>
 <defs class="EmbeddedBulletChars">
  <g id="bullet-char-template(57356)" transform="scale(0.00048828125,-0.00048828125)">
   <path d="M 580,1141 L 1163,571 580,0 -4,571 580,1141 Z"/>
  </g>
  <g id="bullet-char-template(57354)" transform="scale(0.00048828125,-0.00048828125)">
   <path d="M 8,1128 L 1137,1128 1137,0 8,0 8,1128 Z"/>
  </g>
  <g id="bullet-char-template(10146)" transform="scale(0.00048828125,-0.00048828125)">
   <path d="M 174,0 L 602,739 174,1481 1456,739 174,0 Z M 1358,739 L 309,1346 659,739 1358,739 Z"/>
  </g>
  <g id="bullet-char-template(10132)" transform="scale(0.00048828125,-0.00048828125)">
   <path d="M 2015,739 L 1276,0 717,0 1260,543 174,543 174,936 1260,936 717,1481 1274,1481 2015,739 Z"/>
  </g>
  <g id="bullet-char-template(10007)" transform="scale(0.00048828125,-0.00048828125)">
   <path d="M 0,-2 C -7,14 -16,27 -25,37 L 356,567 C 262,823 215,952 215,954 215,979 228,992 255,992 264,992 276,990 289,987 310,991 331,999 354,1012 L 381,999 492,748 772,1049 836,1024 860,1049 C 881,1039 901,1025 922,1006 886,937 835,863 770,784 769,783 710,716 594,584 L 774,223 C 774,196 753,168 711,139 L 727,119 C 717,90 699,76 672,76 641,76 570,178 457,381 L 164,-76 C 142,-110 111,-127 72,-127 30,-127 9,-110 8,-76 1,-67 -2,-52 -2,-32 -2,-23 -1,-13 0,-2 Z"/>
  </g>
  <g id="bullet-char-template(10004)" transform="scale(0.00048828125,-0.00048828125)">
   <path d="M 285,-33 C 182,-33 111,30 74,156 52,228 41,333 41,471 41,549 55,616 82,672 116,743 169,778 240,778 293,778 328,747 346,684 L 369,508 C 377,444 397,411 428,410 L 1163,1116 C 1174,1127 1196,1133 1229,1133 1271,1133 1292,1118 1292,1087 L 1292,965 C 1292,929 1282,901 1262,881 L 442,47 C 390,-6 338,-33 285,-33 Z"/>
  </g>
  <g id="bullet-char-template(9679)" transform="scale(0.00048828125,-0.00048828125)">
   <path d="M 813,0 C 632,0 489,54 383,161 276,268 223,411 223,592 223,773 276,916 383,1023 489,1130 632,1184 813,1184 992,1184 1136,1130 1245,1023 1353,916 1407,772 1407,592 1407,412 1353,268 1245,161 1136,54 992,0 813,0 Z"/>
  </g>
  <g id="bullet-char-template(8226)" transform="scale(0.00048828125,-0.00048828125)">
   <path d="M 346,457 C 273,457 209,483 155,535 101,586 74,649 74,723 74,796 101,859 155,911 209,963 273,989 346,989 419,989 480,963 531,910 582,859 608,796 608,723 608,648 583,586 532,535 482,483 420,457 346,457 Z"/>
  </g>
  <g id="bullet-char-template(8211)" transform="scale(0.00048828125,-0.00048828125)">
   <path d="M -4,459 L 1135,459 1135,606 -4,606 -4,459 Z"/>
  </g>
 </defs>
 <defs class="TextEmbeddedBitmaps"/>
 <g>
  <g id="id2" class="Master_Slide">
   <g id="bg-id2" class="Background"/>
   <g id="bo-id2" class="BackgroundObjects"/>
  </g>
 </g>
 <g class="SlideGroup">
  <g>
   <g id="id1" class="Slide" clip-path="url(#presentation_clip_path)">
    <g class="Page">
     <g class="com.sun.star.drawing.CustomShape">
      <g id="id3">
       <path fill="rgb(114,159,207)" stroke="none" d="M 2550,4900 L 1100,4900 1100,2000 4000,2000 4000,4900 2550,4900 Z"/>
       <path fill="none" stroke="rgb(52,101,164)" d="M 2550,4900 L 1100,4900 1100,2000 4000,2000 4000,4900 2550,4900 Z"/>
      </g>
     </g>
     <g class="com.sun.star.drawing.CustomShape">
      <g id="id4">
       <path fill="rgb(114,159,207)" stroke="none" d="M 2550,7100 C 3372,7100 4000,7728 4000,8550 4000,9372 3372,10000 2550,10000 1728,10000 1100,9372 1100,8550 1100,7728 1728,7100 2550,7100 Z M 1100,7100 L 1100,7100 Z M 4001,10001 L 4001,10001 Z"/>
       <path fill="none" stroke="rgb(52,101,164)" d="M 2550,7100 C 3372,7100 4000,7728 4000,8550 4000,9372 3372,10000 2550,10000 1728,10000 1100,9372 1100,8550 1100,7728 1728,7100 2550,7100 Z"/>
       <path fill="none" stroke="rgb(52,101,164)" d="M 1100,7100 L 1100,7100 Z"/>
       <path fill="none" stroke="rgb(52,101,164)" d="M 4001,10001 L 4001,10001 Z"/>
      </g>
     </g>
     <g class="com.sun.star.drawing.CustomShape">
      <g id="id5">
       <path fill="rgb(114,159,207)" stroke="none" d="M 2550,14900 L 1100,14900 1100,12000 4000,12000 4000,14900 2550,14900 Z"/>
       <path fill="none" stroke="rgb(52,101,164)" stroke-width="300" stroke-linejoin="round" d="M 2550,14900 L 1100,14900 1100,12000 4000,12000 4000,14900 2550,14900 Z"/>
      </g>
     </g>
     <g class="com.sun.star.drawing.CustomShape">
      <g id="id6">
       <path fill="rgb(114,159,207)" stroke="none" d="M 2550,17100 C 3372,17100 4000,17728 4000,18550 4000,19372 3372,20000 2550,20000 1728,20000 1100,19372 1100,18550 1100,17728 1728,17100 2550,17100 Z M 1100,17100 L 1100,17100 Z M 4001,20001 L 4001,20001 Z"/>
       <path fill="none" stroke="rgb(52,101,164)" stroke-width="300" stroke-linejoin="round" d="M 2550,17100 C 3372,17100 4000,17728 4000,18550 4000,19372 3372,20000 2550,20000 1728,20000 1100,19372 1100,18550 1100,17728 1728,17100 2550,17100 Z"/>
      </g>
     </g>
     <g class="com.sun.star.drawing.CustomShape">
      <g id="id7">
       <path fill="rgb(204,255,255)" stroke="none" d="M 6450,4900 L 5000,4900 5000,2000 7900,2000 7900,4900 6450,4900 Z"/>
       <path fill="none" stroke="rgb(52,101,164)" d="M 6450,4900 L 5000,4900 5000,2000 7900,2000 7900,4900 6450,4900 Z"/>
      </g>
     </g>
     <g class="com.sun.star.drawing.CustomShape">
      <g id="id8">
       <path fill="rgb(204,255,255)" stroke="none" d="M 6550,7100 C 7372,7100 8000,7728 8000,8550 8000,9372 7372,10000 6550,10000 5728,10000 5100,9372 5100,8550 5100,7728 5728,7100 6550,7100 Z M 5100,7100 L 5100,7100 Z M 8001,10001 L 8001,10001 Z"/>
       <path fill="none" stroke="rgb(52,101,164)" d="M 6550,7100 C 7372,7100 8000,7728 8000,8550 8000,9372 7372,10000 6550,10000 5728,10000 5100,9372 5100,8550 5100,7728 5728,7100 6550,7100 Z"/>
       <path fill="none" stroke="rgb(52,101,164)" d="M 5100,7100 L 5100,7100 Z"/>
       <path fill="none" stroke="rgb(52,101,164)" d="M 8001,10001 L 8001,10001 Z"/>
      </g>
     </g>
     <g class="com.sun.star.drawing.CustomShape">
      <g id="id9">
       <path fill="rgb(204,255,255)" stroke="none" d="M 6450,14900 L 5000,14900 5000,12000 7900,12000 7900,14900 6450,14900 Z"/>
       <path fill="none" stroke="rgb(52,101,164)" stroke-width="300" stroke-linejoin="round" d="M 6450,14900 L 5000,14900 5000,12000 7900,12000 7900,14900 6450,14900 Z"/>
      </g>
     </g>
     <g class="com.sun.star.drawing.CustomShape">
      <g id="id10">
       <path fill="rgb(204,255,255)" stroke="none" d="M 6550,17100 C 7372,17100 8000,17728 8000,18550 8000,19372 7372,20000 6550,20000 5728,20000 5100,19372 5100,18550 5100,17728 5728,17100 6550,17100 Z M 5100,17100 L 5100,17100 Z M 8001,20001 L 8001,20001 Z"/>
       <path fill="none" stroke="rgb(52,101,164)" stroke-width="300" stroke-linejoin="round" d="M 6550,17100 C 7372,17100 8000,17728 8000,18550 8000,19372 7372,20000 6550,20000 5728,20000 5100,19372 5100,18550 5100,17728 5728,17100 6550,17100 Z"/>
      </g>
     </g>
     <g class="Group">
      <g class="com.sun.star.drawing.CustomShape">
       <g id="id11">
        <path fill="rgb(204,255,255)" stroke="none" d="M 10550,7100 C 11372,7100 12000,7728 12000,8550 12000,9372 11372,10000 10550,10000 9728,10000 9100,9372 9100,8550 9100,7728 9728,7100 10550,7100 Z M 9100,7100 L 9100,7100 Z M 12001,10001 L 12001,10001 Z"/>
        <path fill="none" stroke="rgb(52,101,164)" d="M 10550,7100 C 11372,7100 12000,7728 12000,8550 12000,9372 11372,10000 10550,10000 9728,10000 9100,9372 9100,8550 9100,7728 9728,7100 10550,7100 Z"/>
        <path fill="none" stroke="rgb(52,101,164)" d="M 9100,7100 L 9100,7100 Z"/>
        <path fill="none" stroke="rgb(52,101,164)" d="M 12001,10001 L 12001,10001 Z"/>
       </g>
      </g>
      <g class="com.sun.star.drawing.CustomShape">
       <g id="id12">
        <path fill="rgb(255,255,255)" stroke="none" d="M 10550,7800 L 10398,8297 9900,8297 10304,8607 10152,9101 10550,8798 10948,9101 10796,8607 11201,8297 10702,8297 10550,7800 10550,7800 Z M 9900,7800 L 9900,7800 Z M 11201,9101 L 11201,9101 Z"/>
        <path fill="none" stroke="rgb(52,101,164)" d="M 10550,7800 L 10398,8297 9900,8297 10304,8607 10152,9101 10550,8798 10948,9101 10796,8607 11201,8297 10702,8297 10550,7800 10550,7800 Z"/>
        <path fill="none" stroke="rgb(52,101,164)" d="M 9900,7800 L 9900,7800 Z"/>
        <path fill="none" stroke="rgb(52,101,164)" d="M 11201,9101 L 11201,9101 Z"/>
       </g>
      </g>
     </g>
     <g class="Group">
      <g class="com.sun.star.drawing.CustomShape">
       <g id="id13">
        <path fill="rgb(204,255,255)" stroke="none" d="M 10450,14900 L 9000,14900 9000,12000 11900,12000 11900,14900 10450,14900 Z"/>
        <path fill="none" stroke="rgb(52,101,164)" stroke-width="300" stroke-linejoin="round" d="M 10450,14900 L 9000,14900 9000,12000 11900,12000 11900,14900 10450,14900 Z"/>
       </g>
      </g>
      <g class="com.sun.star.drawing.CustomShape">
       <g id="id14">
        <path fill="rgb(255,255,255)" stroke="none" d="M 10497,12677 L 10351,13157 9869,13157 10260,13457 10113,13934 10497,13641 10882,13934 10735,13457 11127,13157 10644,13157 10497,12677 10497,12677 Z M 9869,12677 L 9869,12677 Z M 11127,13934 L 11127,13934 Z"/>
        <path fill="none" stroke="rgb(52,101,164)" d="M 10497,12677 L 10351,13157 9869,13157 10260,13457 10113,13934 10497,13641 10882,13934 10735,13457 11127,13157 10644,13157 10497,12677 10497,12677 Z"/>
        <path fill="none" stroke="rgb(52,101,164)" d="M 9869,12677 L 9869,12677 Z"/>
        <path fill="none" stroke="rgb(52,101,164)" d="M 11127,13934 L 11127,13934 Z"/>
       </g>
      </g>
     </g>
     <g class="Group">
      <g class="com.sun.star.drawing.CustomShape">
       <g id="id15">
        <path fill="rgb(204,255,255)" stroke="none" d="M 10450,4900 L 9000,4900 9000,2000 11900,2000 11900,4900 10450,4900 Z"/>
        <path fill="none" stroke="rgb(52,101,164)" d="M 10450,4900 L 9000,4900 9000,2000 11900,2000 11900,4900 10450,4900 Z"/>
       </g>
      </g>
      <g class="com.sun.star.drawing.CustomShape">
       <g id="id16">
        <path fill="rgb(255,255,255)" stroke="none" d="M 10497,2772 L 10351,3252 9869,3252 10260,3552 10113,4030 10497,3737 10882,4030 10735,3552 11127,3252 10644,3252 10497,2772 10497,2772 Z M 9869,2772 L 9869,2772 Z M 11127,4030 L 11127,4030 Z"/>
        <path fill="none" stroke="rgb(52,101,164)" d="M 10497,2772 L 10351,3252 9869,3252 10260,3552 10113,4030 10497,3737 10882,4030 10735,3552 11127,3252 10644,3252 10497,2772 10497,2772 Z"/>
        <path fill="none" stroke="rgb(52,101,164)" d="M 9869,2772 L 9869,2772 Z"/>
        <path fill="none" stroke="rgb(52,101,164)" d="M 11127,4030 L 11127,4030 Z"/>
       </g>
      </g>
     </g>
     <g class="Group">
      <g class="com.sun.star.drawing.CustomShape">
       <g id="id17">
        <path fill="rgb(204,255,255)" stroke="none" d="M 10550,17100 C 11372,17100 12000,17728 12000,18550 12000,19372 11372,20000 10550,20000 9728,20000 9100,19372 9100,18550 9100,17728 9728,17100 10550,17100 Z M 9100,17100 L 9100,17100 Z M 12001,20001 L 12001,20001 Z"/>
        <path fill="none" stroke="rgb(52,101,164)" stroke-width="300" stroke-linejoin="round" d="M 10550,17100 C 11372,17100 12000,17728 12000,18550 12000,19372 11372,20000 10550,20000 9728,20000 9100,19372 9100,18550 9100,17728 9728,17100 10550,17100 Z"/>
       </g>
      </g>
      <g class="com.sun.star.drawing.CustomShape">
       <g id="id18">
        <path fill="rgb(255,255,255)" stroke="none" d="M 10550,17800 L 10398,18297 9900,18297 10304,18607 10152,19101 10550,18798 10948,19101 10796,18607 11201,18297 10702,18297 10550,17800 10550,17800 Z M 9900,17800 L 9900,17800 Z M 11201,19101 L 11201,19101 Z"/>
        <path fill="none" stroke="rgb(52,101,164)" d="M 10550,17800 L 10398,18297 9900,18297 10304,18607 10152,19101 10550,18798 10948,19101 10796,18607 11201,18297 10702,18297 10550,17800 10550,17800 Z"/>
        <path fill="none" stroke="rgb(52,101,164)" d="M 9900,17800 L 9900,17800 Z"/>
        <path fill="none" stroke="rgb(52,101,164)" d="M 11201,19101 L 11201,19101 Z"/>
       </g>
      </g>
     </g>
     <g class="Group">
      <g class="com.sun.star.drawing.CustomShape">
       <g id="id19">
        <path fill="rgb(114,159,207)" stroke="none" d="M 14450,7100 C 15272,7100 15900,7728 15900,8550 15900,9372 15272,10000 14450,10000 13628,10000 13000,9372 13000,8550 13000,7728 13628,7100 14450,7100 Z M 13000,7100 L 13000,7100 Z M 15901,10001 L 15901,10001 Z"/>
        <path fill="none" stroke="rgb(52,101,164)" d="M 14450,7100 C 15272,7100 15900,7728 15900,8550 15900,9372 15272,10000 14450,10000 13628,10000 13000,9372 13000,8550 13000,7728 13628,7100 14450,7100 Z"/>
        <path fill="none" stroke="rgb(52,101,164)" d="M 13000,7100 L 13000,7100 Z"/>
        <path fill="none" stroke="rgb(52,101,164)" d="M 15901,10001 L 15901,10001 Z"/>
       </g>
      </g>
      <g class="com.sun.star.drawing.CustomShape">
       <g id="id20">
        <path fill="rgb(255,255,255)" stroke="none" d="M 14450,7800 L 14298,8297 13800,8297 14204,8607 14052,9101 14450,8798 14848,9101 14696,8607 15101,8297 14602,8297 14450,7800 14450,7800 Z M 13800,7800 L 13800,7800 Z M 15101,9101 L 15101,9101 Z"/>
        <path fill="none" stroke="rgb(52,101,164)" d="M 14450,7800 L 14298,8297 13800,8297 14204,8607 14052,9101 14450,8798 14848,9101 14696,8607 15101,8297 14602,8297 14450,7800 14450,7800 Z"/>
        <path fill="none" stroke="rgb(52,101,164)" d="M 13800,7800 L 13800,7800 Z"/>
        <path fill="none" stroke="rgb(52,101,164)" d="M 15101,9101 L 15101,9101 Z"/>
       </g>
      </g>
     </g>
     <g class="Group">
      <g class="com.sun.star.drawing.CustomShape">
       <g id="id21">
        <path fill="rgb(114,159,207)" stroke="none" d="M 14450,4900 L 13000,4900 13000,2000 15900,2000 15900,4900 14450,4900 Z"/>
        <path fill="none" stroke="rgb(52,101,164)" d="M 14450,4900 L 13000,4900 13000,2000 15900,2000 15900,4900 14450,4900 Z"/>
       </g>
      </g>
      <g class="com.sun.star.drawing.CustomShape">
       <g id="id22">
        <path fill="rgb(255,255,255)" stroke="none" d="M 14497,2677 L 14351,3157 13869,3157 14260,3457 14113,3934 14497,3641 14882,3934 14735,3457 15127,3157 14644,3157 14497,2677 14497,2677 Z M 13869,2677 L 13869,2677 Z M 15127,3934 L 15127,3934 Z"/>
        <path fill="none" stroke="rgb(52,101,164)" d="M 14497,2677 L 14351,3157 13869,3157 14260,3457 14113,3934 14497,3641 14882,3934 14735,3457 15127,3157 14644,3157 14497,2677 14497,2677 Z"/>
        <path fill="none" stroke="rgb(52,101,164)" d="M 13869,2677 L 13869,2677 Z"/>
        <path fill="none" stroke="rgb(52,101,164)" d="M 15127,3934 L 15127,3934 Z"/>
       </g>
      </g>
     </g>
     <g class="Group">
      <g class="com.sun.star.drawing.CustomShape">
       <g id="id23">
        <path fill="rgb(114,159,207)" stroke="none" d="M 14450,14900 L 13000,14900 13000,12000 15900,12000 15900,14900 14450,14900 Z"/>
        <path fill="none" stroke="rgb(52,101,164)" stroke-width="300" stroke-linejoin="round" d="M 14450,14900 L 13000,14900 13000,12000 15900,12000 15900,14900 14450,14900 Z"/>
       </g>
      </g>
      <g class="com.sun.star.drawing.CustomShape">
       <g id="id24">
        <path fill="rgb(255,255,255)" stroke="none" d="M 14400,12677 L 14254,13157 13772,13157 14163,13457 14016,13934 14400,13641 14785,13934 14638,13457 15030,13157 14547,13157 14400,12677 14400,12677 Z M 13772,12677 L 13772,12677 Z M 15030,13934 L 15030,13934 Z"/>
        <path fill="none" stroke="rgb(52,101,164)" d="M 14400,12677 L 14254,13157 13772,13157 14163,13457 14016,13934 14400,13641 14785,13934 14638,13457 15030,13157 14547,13157 14400,12677 14400,12677 Z"/>
        <path fill="none" stroke="rgb(52,101,164)" d="M 13772,12677 L 13772,12677 Z"/>
        <path fill="none" stroke="rgb(52,101,164)" d="M 15030,13934 L 15030,13934 Z"/>
       </g>
      </g>
     </g>
     <g class="Group">
      <g class="com.sun.star.drawing.CustomShape">
       <g id="id25">
        <path fill="rgb(114,159,207)" stroke="none" d="M 14450,17100 C 15272,17100 15900,17728 15900,18550 15900,19372 15272,20000 14450,20000 13628,20000 13000,19372 13000,18550 13000,17728 13628,17100 14450,17100 Z M 13000,17100 L 13000,17100 Z M 15901,20001 L 15901,20001 Z"/>
        <path fill="none" stroke="rgb(52,101,164)" stroke-width="300" stroke-linejoin="round" d="M 14450,17100 C 15272,17100 15900,17728 15900,18550 15900,19372 15272,20000 14450,20000 13628,20000 13000,19372 13000,18550 13000,17728 13628,17100 14450,17100 Z"/>
       </g>
      </g>
      <g class="com.sun.star.drawing.CustomShape">
       <g id="id26">
        <path fill="rgb(255,255,255)" stroke="none" d="M 14450,17800 L 14298,18297 13800,18297 14204,18607 14052,19101 14450,18798 14848,19101 14696,18607 15101,18297 14602,18297 14450,17800 14450,17800 Z M 13800,17800 L 13800,17800 Z M 15101,19101 L 15101,19101 Z"/>
        <path fill="none" stroke="rgb(52,101,164)" d="M 14450,17800 L 14298,18297 13800,18297 14204,18607 14052,19101 14450,18798 14848,19101 14696,18607 15101,18297 14602,18297 14450,17800 14450,17800 Z"/>
        <path fill="none" stroke="rgb(52,101,164)" d="M 13800,17800 L 13800,17800 Z"/>
        <path fill="none" stroke="rgb(52,101,164)" d="M 15101,19101 L 15101,19101 Z"/>
       </g>
      </g>
     </g>
    </g>
   </g>
  </g>
 </g>
</svg>